<svg width="32" height="32" viewBox="0 0 32 32" fill="none" xmlns="http://www.w3.org/2000/svg">
<path d="M26.335 0.571426H5.66505C2.53633 0.571426 0 3.10775 0 6.23647V25.7635C0 28.8922 2.53633 31.4286 5.66505 31.4286H26.335C29.4637 31.4286 32 28.8922 32 25.7635V6.23647C32 3.10775 29.4637 0.571426 26.335 0.571426Z" fill="#EB1000"/>
<path d="M24.8098 23.9999H21.083C20.9211 24.0028 20.7619 23.9573 20.6258 23.869C20.4897 23.7807 20.3828 23.6536 20.3187 23.504L16.2728 13.9837C16.2622 13.9467 16.2401 13.914 16.2096 13.8906C16.1792 13.8672 16.142 13.8543 16.1037 13.8538C16.0654 13.8533 16.028 13.8652 15.9969 13.8878C15.9659 13.9104 15.9429 13.9425 15.9314 13.9792L13.41 20.0239C13.3963 20.0566 13.3909 20.0922 13.3942 20.1275C13.3975 20.1628 13.4094 20.1968 13.4289 20.2263C13.4484 20.2559 13.4749 20.2801 13.5059 20.2969C13.537 20.3137 13.5717 20.3225 13.607 20.3225H16.3785C16.4624 20.3225 16.5445 20.3473 16.6145 20.394C16.6845 20.4406 16.7393 20.507 16.772 20.5848L17.9854 23.3023C18.0176 23.3786 18.0305 23.4617 18.023 23.5441C18.0154 23.6266 17.9877 23.706 17.9423 23.775C17.8969 23.8441 17.8352 23.9008 17.7627 23.94C17.6902 23.9793 17.6092 23.9998 17.5269 23.9999H7.43723C7.36134 23.9994 7.28674 23.9801 7.22008 23.9436C7.15343 23.9071 7.09678 23.8545 7.05519 23.7906C7.01361 23.7268 6.98837 23.6535 6.98174 23.5774C6.97511 23.5013 6.98728 23.4248 7.01718 23.3546L13.435 7.97384C13.5005 7.81105 13.6134 7.67195 13.7587 7.57469C13.9041 7.47743 14.0752 7.42654 14.2497 7.42865H17.9513C18.1259 7.42632 18.2972 7.47713 18.4426 7.57442C18.588 7.6717 18.7008 7.81093 18.7662 7.97384L25.2284 23.3546C25.2583 23.4247 25.2705 23.5011 25.264 23.5771C25.2574 23.6531 25.2323 23.7262 25.1909 23.7901C25.1495 23.854 25.093 23.9065 25.0265 23.9431C24.96 23.9797 24.8856 23.9992 24.8098 23.9999Z" fill="white"/>
</svg>
