<svg width="20" height="20" viewBox="0 0 20 20" fill="none" xmlns="http://www.w3.org/2000/svg">
<mask id="mask0_871_1567" style="mask-type:alpha" maskUnits="userSpaceOnUse" x="0" y="0" width="20" height="20">
<path d="M4.7501 14C4.56651 14 4.38291 13.9336 4.23838 13.7988C3.93565 13.5166 3.91904 13.042 4.20127 12.7383L6.77744 9.97363L4.20127 7.20898C3.91904 6.90527 3.93565 6.43066 4.23838 6.14843C4.54111 5.8662 5.01768 5.88281 5.29893 6.18554L8.35166 9.46191C8.62021 9.75 8.62021 10.1973 8.35166 10.4853L5.29893 13.7617C5.15147 13.9199 4.9503 14 4.7501 14Z" fill="currentColor"/>
<path d="M16.75 17H3.25C2.00977 17 1 15.9902 1 14.75V5.25C1 4.00977 2.00977 3 3.25 3H16.75C17.9902 3 19 4.00977 19 5.25V14.75C19 15.9902 17.9902 17 16.75 17ZM3.25 4.5C2.83691 4.5 2.5 4.83691 2.5 5.25V14.75C2.5 15.1631 2.83691 15.5 3.25 15.5H16.75C17.1631 15.5 17.5 15.1631 17.5 14.75V5.25C17.5 4.83691 17.1631 4.5 16.75 4.5H3.25Z" fill="currentColor"/>
<path d="M15.25 14H9.75C9.33594 14 9 13.6641 9 13.25C9 12.8359 9.33594 12.5 9.75 12.5H15.25C15.6641 12.5 16 12.8359 16 13.25C16 13.6641 15.6641 14 15.25 14Z" fill="currentColor"/>
</mask>
<g mask="url(#mask0_871_1567)">
<rect width="20" height="20" fill="currentColor"/>
</g>
</svg>
