<svg width="21" height="20" viewBox="0 0 21 20" fill="none" xmlns="http://www.w3.org/2000/svg">
<mask id="mask0_871_3341" style="mask-type:alpha" maskUnits="userSpaceOnUse" x="0" y="0" width="21" height="20">
<g clip-path="url(#clip0_871_3341)">
<path d="M15.9063 17H4.21729C2.31397 17 0.765625 15.4512 0.765625 13.5478C0.765625 12.0547 1.73242 10.7676 3.08935 10.2978C3.04639 10.0674 3.0249 9.83301 3.0249 9.5957C3.0249 7.41601 4.83448 5.64258 7.0586 5.64258C7.33839 5.64258 7.61622 5.67188 7.88965 5.73047C8.52685 3.77246 10.3657 2.38379 12.478 2.38379C15.1489 2.38379 17.3223 4.55664 17.3223 7.22754C17.3223 7.66602 17.2598 8.10059 17.1353 8.52637C18.9375 9.05762 20.2383 10.7178 20.2383 12.668C20.2383 15.0566 18.2949 17 15.9063 17ZM7.0586 7.14258C5.66162 7.14258 4.52491 8.24317 4.52491 9.5957C4.52491 9.92773 4.59425 10.2519 4.73096 10.5605C4.83056 10.7842 4.81396 11.043 4.68701 11.2529C4.55957 11.4629 4.33789 11.5967 4.09326 11.6123C3.06836 11.6777 2.26561 12.5283 2.26561 13.5478C2.26561 14.624 3.14111 15.5 4.21728 15.5H15.9062C17.4678 15.5 18.7383 14.2295 18.7383 12.668C18.7383 11.1709 17.56 9.93457 16.0561 9.85352C15.8017 9.83985 15.5718 9.69727 15.4453 9.47657C15.3188 9.25489 15.3135 8.98438 15.4311 8.7588C15.6909 8.25978 15.8222 7.74415 15.8222 7.22755C15.8222 5.3838 14.3222 3.8838 12.478 3.8838C10.8154 3.8838 9.39793 5.13575 9.18064 6.79591C9.14989 7.03126 9.00877 7.23829 8.80077 7.35353C8.59325 7.47072 8.34179 7.47951 8.12645 7.38087C7.77879 7.22267 7.41993 7.14258 7.0586 7.14258Z" fill="currentColor"/>
</g>
</mask>
<g mask="url(#mask0_871_3341)">
<rect x="0.5" width="20" height="20" fill="currentColor"/>
</g>
<defs>
<clipPath id="clip0_871_3341">
<rect width="20" height="20" fill="white" transform="translate(0.5)"/>
</clipPath>
</defs>
</svg>
