<svg width="20" height="20" viewBox="0 0 20 20" fill="none" xmlns="http://www.w3.org/2000/svg">
<mask id="mask0_871_1579" style="mask-type:alpha" maskUnits="userSpaceOnUse" x="0" y="0" width="20" height="20">
<path d="M19.4137 3.96855C19.0367 3.79863 18.5914 3.96855 18.4234 4.34746L17.7223 5.91875C17.4708 5.43071 17.1744 4.96563 16.8316 4.52813C16.1334 3.63458 15.2809 2.89532 14.2975 2.32891C13.2818 1.74493 12.1725 1.37676 11.0016 1.23418C9.8287 1.08672 8.66268 1.18047 7.53671 1.50371C6.44882 1.81426 5.44296 2.32695 4.54843 3.02715C3.65292 3.72735 2.91366 4.57988 2.35019 5.56035C1.96738 6.22637 1.67343 6.94414 1.47714 7.69121C1.37265 8.09258 1.61191 8.50176 2.0123 8.60723C2.07675 8.62383 2.14023 8.63164 2.20371 8.63164C2.53574 8.63164 2.84043 8.40898 2.92832 8.07207C3.09043 7.45293 3.33359 6.85918 3.65098 6.30742C4.11778 5.49492 4.73008 4.78887 5.47227 4.20879C6.21446 3.62871 7.04747 3.20293 7.94883 2.94512C8.88242 2.67754 9.84727 2.6043 10.819 2.72246C11.7906 2.8416 12.7096 3.14629 13.5504 3.62969C14.3639 4.09844 15.0709 4.71172 15.65 5.45196C15.8976 5.76788 16.1107 6.10406 16.3009 6.45196L14.7447 5.75762C14.3668 5.58672 13.9235 5.75762 13.7545 6.13653C13.5856 6.51446 13.7555 6.9588 14.1334 7.12676L17.3619 8.56719C17.4596 8.61114 17.5631 8.63262 17.6676 8.63262C17.7584 8.63262 17.8492 8.61602 17.9362 8.58282C18.1217 8.51153 18.2711 8.36993 18.3522 8.18829L19.7926 4.9588C19.9616 4.57989 19.7916 4.13651 19.4137 3.96855Z" fill="currentColor"/>
<path d="M17.9877 11.3934C17.5951 11.2928 17.1782 11.5271 17.0727 11.9295C16.9116 12.5467 16.6684 13.1404 16.35 13.6932C15.8823 14.5066 15.269 15.2127 14.5278 15.7928C13.7875 16.3728 12.9545 16.7976 12.0522 17.0555C11.1195 17.323 10.1528 17.3963 9.18204 17.2791C8.21036 17.16 7.29044 16.8553 6.44962 16.3719C5.63712 15.9041 4.93107 15.2908 4.35099 14.5496C4.10343 14.2334 3.89054 13.8977 3.7006 13.5503L5.25626 14.2439C5.63419 14.4148 6.07853 14.2439 6.24649 13.865C6.41544 13.4861 6.24551 13.0427 5.86758 12.8748L2.63809 11.4344C2.26016 11.2644 1.8168 11.4344 1.64786 11.8133L0.207452 15.0418C0.0385025 15.4197 0.208432 15.8641 0.586362 16.032C0.685972 16.0769 0.789482 16.0975 0.892022 16.0975C1.17815 16.0975 1.45257 15.9324 1.57659 15.6531L2.27776 14.0816C2.52898 14.5696 2.82586 15.0352 3.16936 15.4734C3.86858 16.368 4.72014 17.1072 5.70256 17.6727C6.71818 18.2566 7.82854 18.6248 9.00041 18.7674C9.35979 18.8113 9.71818 18.8338 10.0746 18.8338C10.8823 18.8338 11.683 18.7215 12.4643 18.4979C13.5541 18.1863 14.559 17.6736 15.4516 16.9744C16.3461 16.2752 17.0864 15.4227 17.6508 14.4412C18.0346 13.7723 18.3285 13.0555 18.5239 12.3084C18.6283 11.908 18.3891 11.4978 17.9877 11.3934Z" fill="currentColor"/>
</mask>
<g mask="url(#mask0_871_1579)">
<rect width="20" height="20" fill="currentColor"/>
</g>
</svg>
