<svg width="20" height="20" viewBox="0 0 20 20" fill="none" xmlns="http://www.w3.org/2000/svg">
<mask id="mask0_871_3720" style="mask-type:alpha" maskUnits="userSpaceOnUse" x="0" y="0" width="20" height="20">
<path d="M13.2197 12.6572C13.0908 12.6572 12.96 12.624 12.8399 12.5537L9.61915 10.6582C9.39063 10.5234 9.25001 10.2773 9.25001 10.0117V5.01172C9.25001 4.59766 9.58595 4.26172 10 4.26172C10.4141 4.26172 10.75 4.59766 10.75 5.01172V9.58301L13.6016 11.2607C13.958 11.4707 14.0772 11.9307 13.8672 12.2881C13.7275 12.5254 13.4766 12.6572 13.2197 12.6572ZM18.2773 12.8652C18.457 12.3428 18.5879 11.7988 18.6651 11.2471C18.7217 10.8369 18.4356 10.458 18.0254 10.4004C17.6113 10.3418 17.2363 10.6299 17.1787 11.0401C17.1152 11.4961 17.0078 11.9453 16.8594 12.377C16.7246 12.7686 16.9326 13.1953 17.3242 13.3301C17.4053 13.3584 17.4873 13.3711 17.5684 13.3711C17.8799 13.3711 18.1709 13.1758 18.2773 12.8652ZM17.9502 8.85059C18.3535 8.75293 18.5996 8.34766 18.502 7.94532C18.3711 7.40723 18.1875 6.87891 17.9561 6.37403C17.7832 5.99708 17.334 5.83106 16.9609 6.00587C16.585 6.17872 16.4199 6.62403 16.5928 7.00099C16.7842 7.41798 16.9365 7.85451 17.0449 8.29884C17.1279 8.64259 17.4346 8.87208 17.7725 8.87208C17.8311 8.87208 17.8906 8.86523 17.9502 8.85059ZM16.0586 4.74512C16.3438 4.44629 16.333 3.97071 16.0332 3.68457C15.6348 3.30469 15.1953 2.95898 14.7275 2.65723C14.377 2.43262 13.9141 2.53418 13.6904 2.88184C13.4668 3.23047 13.5674 3.69434 13.915 3.91895C14.3037 4.16895 14.668 4.45508 14.9981 4.77051C15.1426 4.90918 15.3291 4.97754 15.5156 4.97754C15.7129 4.97754 15.9111 4.89942 16.0586 4.74512ZM12.248 2.30567C12.3262 1.89844 12.0596 1.50587 11.6533 1.42774C11.1123 1.32422 10.5566 1.27149 10 1.27149H9.93945C9.52539 1.27149 9.21972 1.60743 9.21972 2.02149C9.21972 2.43555 9.58593 2.77149 9.99999 2.77149C10.4619 2.77149 10.9228 2.81544 11.3701 2.9004C11.418 2.91017 11.4658 2.91407 11.5127 2.91407C11.8652 2.91407 12.1797 2.66407 12.248 2.30567ZM16.6123 15.751C16.8838 15.4385 16.8506 14.9649 16.5371 14.6934C16.2256 14.4229 15.752 14.4551 15.4795 14.7686C14.0996 16.3594 12.1025 17.2715 10 17.2715C6.00195 17.2715 2.75 14.0195 2.75 10.0215C2.75 7.10059 4.48828 4.47852 7.17773 3.33985C7.55957 3.17872 7.73828 2.73829 7.57617 2.35743C7.41504 1.97559 6.97168 1.79591 6.59375 1.95899C3.34766 3.33203 1.25 6.49707 1.25 10.0215C1.25 14.8467 5.1748 18.7715 10 18.7715C12.5381 18.7715 14.9483 17.6709 16.6123 15.751Z" fill="currentColor"/>
</mask>
<g mask="url(#mask0_871_3720)">
<rect width="20" height="20" fill="currentColor"/>
</g>
</svg>
