<svg width="20" height="20" viewBox="0 0 20 20" fill="none" xmlns="http://www.w3.org/2000/svg">
<mask id="mask0_871_3730" style="mask-type:alpha" maskUnits="userSpaceOnUse" x="0" y="0" width="20" height="20">
<path d="M15 10.5C12.5147 10.5 10.5 12.5147 10.5 15C10.5 17.4853 12.5147 19.5 15 19.5C17.4853 19.5 19.5 17.4853 19.5 15C19.5 12.5147 17.4853 10.5 15 10.5ZM17.5 15.625H15.625V17.5C15.625 17.8452 15.3452 18.125 15 18.125C14.6548 18.125 14.375 17.8452 14.375 17.5V15.625H12.5C12.1548 15.625 11.875 15.3452 11.875 15C11.875 14.6548 12.1548 14.375 12.5 14.375H14.375V12.5C14.375 12.1548 14.6548 11.875 15 11.875C15.3452 11.875 15.625 12.1548 15.625 12.5V14.375H17.5C17.8452 14.375 18.125 14.6548 18.125 15C18.125 15.3452 17.8452 15.625 17.5 15.625Z" fill="currentColor"/>
<path d="M10.0578 11.4219C9.40499 11.4336 8.75362 11.25 8.19844 10.8975C7.66914 10.5586 7.23701 10.086 6.94795 9.53126C6.64229 8.94923 6.48555 8.29103 6.4958 7.63087C6.47139 6.35743 7.10566 5.15821 8.19307 4.44825C9.2917 3.75001 10.7014 3.75098 11.7922 4.44337C12.32 4.78517 12.7521 5.25392 13.0471 5.80177C13.3532 6.3672 13.5114 7.00782 13.5036 7.65138C13.5143 8.292 13.3581 8.95216 13.0515 9.54005C12.7609 10.0967 12.3288 10.5713 11.8015 10.9111C11.2751 11.2461 10.675 11.4219 10.0578 11.4219ZM10.01 9.9209H10.0192C10.3669 9.91602 10.7004 9.83399 10.9919 9.64844C11.2971 9.45117 11.551 9.17285 11.7214 8.84668C11.9128 8.47949 12.0105 8.06738 12.0036 7.65527C12.0085 7.24414 11.9128 6.85742 11.7268 6.51465C11.5505 6.18555 11.2932 5.90723 10.9826 5.70606C10.3859 5.32715 9.60812 5.32813 9.00558 5.70899C8.36154 6.12989 7.98117 6.84961 7.99581 7.62794C7.98946 8.06446 8.08663 8.47364 8.27706 8.83595C8.44649 9.16115 8.69796 9.43654 9.00558 9.63283C9.30099 9.82131 9.64425 9.92092 9.99728 9.92092L10.01 9.9209Z" fill="currentColor"/>
<path d="M10 1.27148C5.17529 1.27148 1.25 5.19629 1.25 10.0215C1.25 14.3623 4.48682 18.0869 8.7793 18.6865C8.81446 18.6914 8.84912 18.6934 8.88379 18.6934C9.25195 18.6934 9.57324 18.4219 9.62549 18.0469C9.68311 17.6367 9.39697 17.2578 8.98633 17.2002C7.55298 17.0002 6.26636 16.374 5.2356 15.4683C6.01954 14.7861 7.15131 14.2654 8.46582 14.0313C8.87353 13.959 9.14551 13.5693 9.07275 13.1621C9.00048 12.7529 8.61279 12.4824 8.20312 12.5547C6.61376 12.8374 5.19598 13.4827 4.20257 14.3555C3.29016 13.1367 2.74999 11.6314 2.74999 10.0215C2.74999 6.02345 6.00243 2.7715 9.99999 2.7715C13.603 2.7715 16.6904 5.45802 17.1816 9.02052C17.2383 9.43068 17.6196 9.7129 18.0273 9.66114C18.4375 9.6045 18.7246 9.22559 18.6679 8.81544C18.0742 4.51466 14.3482 1.27148 10 1.27148Z" fill="currentColor"/>
</mask>
<g mask="url(#mask0_871_3730)">
<rect width="20" height="20" fill="currentColor"/>
</g>
</svg>
